<!DOCTYPE svg PUBLIC "-//W3C//DTD SVG 1.1//EN" "http://www.w3.org/Graphics/SVG/1.1/DTD/svg11.dtd">
<!-- Uploaded to: SVG Repo, www.svgrepo.com, Transformed by: SVG Repo Mixer Tools -->
<svg fill="#1793d1" height="800px" width="800px" version="1.1" id="Layer_1" xmlns="http://www.w3.org/2000/svg" xmlns:xlink="http://www.w3.org/1999/xlink" viewBox="0 0 512 512" xml:space="preserve" stroke="#1793d1">
<g id="SVGRepo_bgCarrier" stroke-width="0"/>
<g id="SVGRepo_tracerCarrier" stroke-linecap="round" stroke-linejoin="round"/>
<g id="SVGRepo_iconCarrier"> <g> <g> <path d="M186.904,223.42c-0.855-4.343-5.069-7.172-9.415-6.316c-5.25,1.034-10.828,1.933-16.579,2.67 c-4.391,0.563-7.495,4.58-6.932,8.971c0.519,4.046,3.969,6.998,7.942,6.998c0.34,0,0.685-0.022,1.03-0.066 c6.104-0.782,12.039-1.739,17.637-2.842C184.932,231.98,187.76,227.764,186.904,223.42z"/> </g> </g> <g> <g> <path d="M186.904,172.113c-0.855-4.343-5.069-7.172-9.415-6.316c-5.25,1.034-10.828,1.933-16.579,2.67 c-4.391,0.563-7.495,4.58-6.932,8.971c0.519,4.046,3.969,6.998,7.942,6.998c0.34,0,0.685-0.022,1.03-0.066 c6.104-0.782,12.039-1.739,17.637-2.842C184.932,180.673,187.76,176.457,186.904,172.113z"/> </g> </g> <g> <g> <path d="M200.145,53.128c-21.74-6.689-50.492-10.373-80.963-10.373s-59.223,3.683-80.963,10.373C20.784,58.493,0,68.373,0,84.977 v213.779c0,9.165,6.63,22.129,38.218,31.849c21.74,6.689,50.492,10.373,80.963,10.373c21.816,0,43.053-1.912,61.414-5.529 c4.343-0.856,7.171-5.071,6.315-9.415c-0.856-4.344-5.063-7.171-9.415-6.316c-17.356,3.419-37.521,5.227-58.315,5.227 c-28.916,0-55.995-3.432-76.247-9.664c-21.279-6.547-26.901-13.672-26.901-16.524v-28.918c6.767,4.08,14.775,7.18,22.185,9.46 c21.74,6.689,50.492,10.373,80.963,10.373c2.92,0,5.861-0.034,8.739-0.102c4.427-0.104,7.93-3.776,7.826-8.203 c-0.104-4.426-3.779-7.933-8.203-7.826c-2.753,0.065-5.567,0.097-8.363,0.097c-28.916,0-55.995-3.432-76.247-9.664 c-21.279-6.547-26.901-13.672-26.901-16.524v-28.918c6.767,4.08,14.775,7.18,22.185,9.46c21.74,6.689,50.492,10.373,80.963,10.373 c2.92,0,5.861-0.034,8.739-0.102c4.427-0.104,7.93-3.776,7.826-8.203c-0.104-4.426-3.779-7.922-8.203-7.826 c-2.753,0.065-5.567,0.097-8.363,0.097c-28.916,0-55.995-3.432-76.247-9.664c-21.279-6.547-26.901-13.672-26.901-16.524v-28.918 c6.767,4.08,14.775,7.18,22.185,9.46c21.74,6.689,50.492,10.373,80.963,10.373c2.92,0,5.861-0.034,8.739-0.102 c4.427-0.104,7.93-3.776,7.826-8.203c-0.104-4.426-3.779-7.946-8.203-7.826c-2.753,0.065-5.567,0.097-8.363,0.097 c-28.916,0-55.995-3.432-76.247-9.664c-21.279-6.547-26.901-13.672-26.901-16.524v-37.469c6.767,4.08,14.775,7.18,22.185,9.46 c21.74,6.689,50.492,10.372,80.963,10.372s59.223-3.683,80.963-10.372c7.409-2.28,15.418-5.379,22.185-9.46v37.469 c0,2.256-3.3,6.5-12.598,11.031c-3.981,1.939-5.634,6.738-3.695,10.718c1.388,2.85,4.242,4.506,7.213,4.506 c1.178,0,2.375-0.261,3.505-0.811c2.041-0.994,3.888-2.004,5.575-3.025v28.888c0,2.256-3.3,6.5-12.598,11.031 c-3.981,1.939-5.634,6.738-3.695,10.718c1.388,2.85,4.242,4.506,7.213,4.506c1.178,0,2.375-0.261,3.505-0.811 c2.041-0.994,3.888-2.004,5.575-3.025v28.888c0,2.256-3.3,6.5-12.598,11.031c-3.981,1.939-5.634,6.738-3.695,10.718 c1.388,2.85,4.242,4.506,7.213,4.506c1.178,0,2.375-0.261,3.505-0.811c2.04-0.994,3.888-2.004,5.575-3.025v20.337 c0,4.427,3.588,8.017,8.017,8.017c4.428,0,8.017-3.589,8.017-8.017V84.977C238.363,68.373,217.58,58.493,200.145,53.128z M195.429,101.501c-20.252,6.232-47.332,9.664-76.247,9.664s-55.995-3.432-76.247-9.664 c-21.279-6.547-26.901-13.672-26.901-16.524S21.656,75,42.934,68.453c20.252-6.232,47.332-9.664,76.247-9.664 s55.995,3.432,76.247,9.664C216.707,75,222.33,82.125,222.33,84.977S216.707,94.954,195.429,101.501z"/> </g> </g> <g> <g> <path d="M186.905,274.727c-0.855-4.343-5.07-7.172-9.415-6.316c-5.25,1.034-10.828,1.933-16.579,2.67 c-4.391,0.563-7.495,4.58-6.932,8.971c0.519,4.046,3.969,6.998,7.942,6.998c0.34,0,0.685-0.022,1.03-0.066 c6.104-0.782,12.039-1.739,17.637-2.842C184.932,283.287,187.761,279.071,186.905,274.727z"/> </g> </g> <g> <g> <path d="M264.551,153.921c-4.428,0-8.017,3.589-8.017,8.017s3.588,8.017,8.017,8.017c38.015,0,68.944,30.928,68.944,68.944 c0,4.427,3.588,8.017,8.017,8.017c4.428,0,8.017-3.589,8.017-8.017C349.528,192.042,311.408,153.921,264.551,153.921z"/> </g> </g> <g> <g> <path d="M170.489,436.109c-38.015,0-68.944-30.928-68.944-68.944c0-4.427-3.588-8.017-8.017-8.017s-8.017,3.589-8.017,8.017 c0,46.856,38.12,84.977,84.977,84.977c4.428,0,8.017-3.589,8.017-8.017C178.505,439.698,174.917,436.109,170.489,436.109z"/> </g> </g> <g> <g> <path d="M438.577,316.45c-18.209-31.809-51.679-51.365-88.514-51.365s-70.305,19.555-88.514,51.365 c-40.755,1.583-73.423,35.233-73.423,76.368c0,42.141,34.285,76.426,76.426,76.426h171.023c42.141,0,76.426-34.285,76.426-76.426 C512,351.683,479.331,318.033,438.577,316.45z M435.574,453.211H264.551c-33.3,0-60.392-27.092-60.392-60.393 s27.092-60.392,60.385-60.392c0.143,0.002,0.283,0.016,0.423,0.026c0.377,0.026,0.754,0.05,1.135,0.06 c3.051,0.061,5.943-1.62,7.345-4.369c14.808-29.005,44.165-47.024,76.615-47.024s61.807,18.018,76.615,47.024 c1.403,2.749,4.271,4.441,7.345,4.369c0.38-0.01,0.758-0.034,1.135-0.06c0.14-0.01,0.279-0.023,0.42-0.026 c33.296,0.003,60.388,27.094,60.388,60.392C495.967,426.119,468.874,453.211,435.574,453.211z"/> </g> </g> <g> <g> <path d="M408.237,332.183c-12.408-20.598-34.154-32.893-58.175-32.893c-6.595,0-13.119,0.946-19.39,2.812 c-4.245,1.262-6.66,5.726-5.398,9.971c1.262,4.245,5.73,6.66,9.97,5.397c4.786-1.425,9.772-2.146,14.817-2.146 c18.348,0,34.961,9.396,44.442,25.133c1.504,2.498,4.156,3.881,6.874,3.881c1.408,0,2.835-0.371,4.129-1.151 C409.3,340.901,410.521,335.975,408.237,332.183z"/> </g> </g> <g> <g> <path d="M456.706,356.26c-3.83-2.22-8.735-0.911-10.954,2.92c-2.219,3.832-0.912,8.736,2.92,10.955 c8.074,4.674,13.09,13.367,13.09,22.683c0,4.427,3.588,8.017,8.017,8.017c4.428,0,8.017-3.589,8.017-8.017 C477.795,377.8,469.714,363.792,456.706,356.26z"/> </g> </g> </g>
</svg>