<svg xmlns="http://www.w3.org/2000/svg" width="24" height="24" viewBox="0 0 24 24"><path fill="none" stroke="currentColor" stroke-linecap="round" stroke-linejoin="round" stroke-width="0.7" d="M17.478 8h.022a4.5 4.5 0 0 1 1.5 8.744M17.478 8q.021-.247.022-.5a5.5 5.5 0 0 0-10.98-.477M17.478 8a5.5 5.5 0 0 1-1.235 3M6.52 7.023A5 5 0 0 0 5 16.584m1.52-9.561Q6.757 7 7 7c1.126 0 2.165.372 3 1m8.25 13.25L16 19v-2m2.25 3.5a.75.75 0 1 0 0 1.5a.75.75 0 0 0 0-1.5m-12.5.75L8 19v-2m-2.25 3.5a.75.75 0 1 1 0 1.5a.75.75 0 0 1 0-1.5m6.25.75V17m0 3.5a.75.75 0 1 0 0 1.5a.75.75 0 0 0 0-1.5" color="currentColor"/></svg>