<svg id="SvgjsSvg1023" width="288" height="288" xmlns="http://www.w3.org/2000/svg" version="1.1" xmlns:xlink="http://www.w3.org/1999/xlink" xmlns:svgjs="http://svgjs.com/svgjs"><defs id="SvgjsDefs1024"></defs><g id="SvgjsG1025"><svg xmlns="http://www.w3.org/2000/svg" fill="none" viewBox="0 0 24 24" width="288" height="288"><path fill="url(#a)" fill-rule="evenodd" d="M12.9924 13.3745C13.338 13.6029 13.4329 14.0682 13.2045 14.4137L11.6601 16.7501H12.763C12.7749 16.7501 12.787 16.7501 12.7992 16.7501C12.9801 16.75 13.1913 16.7498 13.3644 16.7757C13.5517 16.8036 13.933 16.8946 14.1413 17.2872C14.3483 17.6773 14.2129 18.0429 14.1333 18.2129C14.0591 18.3714 13.9423 18.5477 13.8417 18.6998C13.835 18.7099 13.8283 18.72 13.8218 18.7299L12.0477 21.4137C11.8193 21.7592 11.354 21.8542 11.0085 21.6258C10.6629 21.3974 10.568 20.9321 10.7964 20.5865L12.3408 18.2501H11.2379C11.226 18.2501 11.2139 18.2501 11.2016 18.2501C11.0208 18.2503 10.8095 18.2504 10.6364 18.2246C10.4492 18.1967 10.0679 18.1056 9.85959 17.713C9.65259 17.323 9.78794 16.9574 9.86757 16.7874C9.94181 16.6288 10.0585 16.4525 10.1592 16.3005C10.1659 16.2903 10.1725 16.2803 10.1791 16.2703L11.9532 13.5865C12.1816 13.241 12.6469 13.146 12.9924 13.3745Z" clip-rule="evenodd"></path><path fill="url(#b)" d="M13.1294 12.9159C13.5902 13.2205 13.7168 13.8409 13.4122 14.3016L12.1242 16.2502L12.8023 16.2501C12.9781 16.2499 13.2078 16.2497 13.4005 16.2784C13.6114 16.3099 14.0958 16.4197 14.3613 16.92C14.625 17.417 14.4483 17.878 14.3589 18.0689C14.2764 18.2451 14.1495 18.4366 14.0516 18.5843L12.2554 21.3016C11.9509 21.7623 11.3305 21.8889 10.8698 21.5844C10.409 21.2798 10.2824 20.6594 10.587 20.1987L11.875 18.2502L11.1969 18.2502C11.0211 18.2504 10.7914 18.2506 10.5987 18.2219C10.3878 18.1904 9.90343 18.0806 9.63792 17.5803C9.37419 17.0833 9.55089 16.6224 9.64033 16.4314C9.72283 16.2552 9.8497 16.0637 9.94757 15.916L11.7438 13.1987C12.0483 12.738 12.6687 12.6114 13.1294 12.9159Z"></path><path fill="url(#c)" d="M5.93931 6.96783C5.88991 7.16384 5.8652 7.26184 5.80872 7.3197C5.75224 7.37755 5.65424 7.40476 5.45825 7.45919C3.03106 8.1332 1.25 10.3583 1.25 13C1.25 16.1756 3.82436 18.75 7 18.75H8.06437C8.28777 18.75 8.4195 18.4808 8.31478 18.2835C7.7076 17.1393 8.14019 16.1019 8.28376 15.7953C8.41461 15.5159 8.59498 15.2443 8.68473 15.1091L10.4943 12.3717C11.2557 11.2199 12.8067 10.9034 13.9585 11.6647C14.9278 12.3055 15.2972 13.518 14.9362 14.5726C14.8322 14.8762 14.7802 15.028 14.8012 15.1134C14.8221 15.1989 14.9374 15.3084 15.1678 15.5273C15.3588 15.7088 15.5384 15.9349 15.6881 16.217C16.0035 16.8113 16.0326 17.3889 15.9676 17.8498C15.9023 18.3123 15.8697 18.5435 15.9594 18.6468C16.0491 18.75 16.2465 18.75 16.6412 18.75H17.5C20.3995 18.75 22.75 16.3995 22.75 13.5C22.75 11.0285 21.0422 8.95589 18.7423 8.39786C18.4989 8.3388 18.3772 8.30927 18.3147 8.23828C18.2522 8.1673 18.2385 8.04461 18.2112 7.79924C17.8628 4.67731 15.2149 2.25 12 2.25C9.07671 2.25 6.62272 4.25653 5.93931 6.96783Z"></path><defs><linearGradient id="a" x1="1.25" x2="17.247" y1="2.25" y2="21.462" gradientUnits="userSpaceOnUse"><stop stop-color="#868282" class="stopColor21D4FD svgShape"></stop><stop offset="1" stop-color="#868282" class="stopColorAC00FF svgShape"></stop></linearGradient><linearGradient id="b" x1="1.25" x2="17.247" y1="2.25" y2="21.462" gradientUnits="userSpaceOnUse"><stop stop-color="#868282" class="stopColor21D4FD svgShape"></stop><stop offset="1" stop-color="#868282" class="stopColorAC00FF svgShape"></stop></linearGradient><linearGradient id="c" x1="1.25" x2="17.247" y1="2.25" y2="21.462" gradientUnits="userSpaceOnUse"><stop stop-color="#868282" class="stopColor21D4FD svgShape"></stop><stop offset="1" stop-color="#868282" class="stopColorAC00FF svgShape"></stop></linearGradient></defs></svg></g></svg>