<svg xmlns="http://www.w3.org/2000/svg" fill="none" viewBox="0 0 24 24" id="CodingFolder">
  <path fill="#5fc2c2" fill-rule="evenodd" d="M1.25 6C1.25 4.48122 2.48122 3.25 4 3.25H7.99298C8.86399 3.25 9.68351 3.66263 10.2022 4.36236L12.0028 6.79145C12.2386 7.10951 12.6111 7.29707 13.007 7.29707H20C21.5188 7.29707 22.75 8.52828 22.75 10.0471V18C22.75 19.5188 21.5188 20.75 20 20.75H4C2.48122 20.75 1.25 19.5188 1.25 18V6ZM9.53033 12.5303C9.82322 12.2374 9.82322 11.7626 9.53033 11.4697C9.23744 11.1768 8.76256 11.1768 8.46967 11.4697L6.46967 13.4697C6.17678 13.7626 6.17678 14.2374 6.46967 14.5303L8.46967 16.5303C8.76256 16.8232 9.23744 16.8232 9.53033 16.5303C9.82322 16.2374 9.82322 15.7626 9.53033 15.4697L8.06066 14L9.53033 12.5303ZM14.4697 11.4697C14.1768 11.7626 14.1768 12.2374 14.4697 12.5303L15.9393 14L14.4697 15.4697C14.1768 15.7626 14.1768 16.2374 14.4697 16.5303C14.7626 16.8232 15.2374 16.8232 15.5303 16.5303L17.5303 14.5303C17.8232 14.2374 17.8232 13.7626 17.5303 13.4697L15.5303 11.4697C15.2374 11.1768 14.7626 11.1768 14.4697 11.4697ZM13.6708 12.3354C13.8561 11.9649 13.7059 11.5144 13.3354 11.3292C12.9649 11.1439 12.5144 11.2941 12.3292 11.6646L10.3292 15.6646C10.1439 16.0351 10.2941 16.4856 10.6646 16.6708C11.0351 16.8561 11.4856 16.7059 11.6708 16.3354L13.6708 12.3354Z" clip-rule="evenodd" class="color000000 svgShape"></path>
</svg>
